<?xml version="1.0" standalone="no"?>
<svg xmlns:xlink="http://www.w3.org/1999/xlink" id="wave" style="transform:rotate(180deg); transition: 0.3s" viewBox="0 0 1440 100" version="1.1" xmlns="http://www.w3.org/2000/svg"><defs><linearGradient id="sw-gradient-0" x1="0" x2="0" y1="1" y2="0"><stop stop-color="rgba(255, 249, 234, 1)" offset="0%"/><stop stop-color="rgba(255, 249, 234, 1)" offset="100%"/></linearGradient></defs><path style="transform:translate(0, 0px); opacity:1" fill="url(#sw-gradient-0)" d="M0,10L17.1,10C34.3,10,69,10,103,20C137.1,30,171,50,206,60C240,70,274,70,309,71.7C342.9,73,377,77,411,75C445.7,73,480,67,514,58.3C548.6,50,583,40,617,33.3C651.4,27,686,23,720,25C754.3,27,789,33,823,30C857.1,27,891,13,926,13.3C960,13,994,27,1029,41.7C1062.9,57,1097,73,1131,71.7C1165.7,70,1200,50,1234,46.7C1268.6,43,1303,57,1337,66.7C1371.4,77,1406,83,1440,75C1474.3,67,1509,43,1543,33.3C1577.1,23,1611,27,1646,33.3C1680,40,1714,50,1749,45C1782.9,40,1817,20,1851,25C1885.7,30,1920,60,1954,63.3C1988.6,67,2023,43,2057,43.3C2091.4,43,2126,67,2160,75C2194.3,83,2229,77,2263,71.7C2297.1,67,2331,63,2366,56.7C2400,50,2434,40,2451,35L2468.6,30L2468.6,100L2451.4,100C2434.3,100,2400,100,2366,100C2331.4,100,2297,100,2263,100C2228.6,100,2194,100,2160,100C2125.7,100,2091,100,2057,100C2022.9,100,1989,100,1954,100C1920,100,1886,100,1851,100C1817.1,100,1783,100,1749,100C1714.3,100,1680,100,1646,100C1611.4,100,1577,100,1543,100C1508.6,100,1474,100,1440,100C1405.7,100,1371,100,1337,100C1302.9,100,1269,100,1234,100C1200,100,1166,100,1131,100C1097.1,100,1063,100,1029,100C994.3,100,960,100,926,100C891.4,100,857,100,823,100C788.6,100,754,100,720,100C685.7,100,651,100,617,100C582.9,100,549,100,514,100C480,100,446,100,411,100C377.1,100,343,100,309,100C274.3,100,240,100,206,100C171.4,100,137,100,103,100C68.6,100,34,100,17,100L0,100Z"/></svg>